<svg width="30" height="35" viewBox="0 0 30 35" fill="none" xmlns="http://www.w3.org/2000/svg">
<path d="M25.5526 17.7989C25.4154 16.3984 24.9628 14.7498 23.7147 13.4222C22.4666 12.0945 22.2609 10.4022 23.0564 8.85572C23.797 7.3968 25.3331 6.59439 26.8144 6.87159C28.4328 7.17796 29.6672 8.44722 29.9003 10.1688C30.0786 11.438 29.5986 12.5322 28.8031 13.4367C26.6772 15.844 26.6498 18.9952 28.7482 21.4025C30.01 22.8468 30.2981 24.3933 29.5849 25.9543C28.9265 27.384 27.4453 28.3032 26.0189 28.1573C24.3182 27.9822 23.1113 26.8442 22.6312 24.9185C21.9318 22.1173 19.1613 20.3958 16.5142 21.1107C13.9906 21.7964 12.2351 20.7022 11.5356 18.0323C10.9596 15.8586 8.97085 14.21 6.81756 14.137C5.5969 14.1078 5.03458 14.5309 4.966 15.8002C4.85628 17.8719 5.25402 19.7976 6.65297 21.3733C8.49082 23.445 8.09307 26.4795 5.81634 27.7342C4.2528 28.595 2.33267 28.1573 1.22173 26.7129C0.0559339 25.1957 0.138227 23.2407 1.31774 21.6505C1.92121 20.8335 2.60697 19.9873 2.89499 19.0244C3.53961 16.9236 3.04586 15.0124 1.53719 13.393C-0.0674966 11.6714 0.0285101 9.19127 1.67434 7.67399C3.74534 5.7628 6.88613 6.75487 7.68162 9.57059C8.6554 12.9699 11.0281 14.4434 14.2375 13.641C16.3359 13.1158 18.2835 14.3267 18.8047 16.6172C19.3121 18.8056 20.6974 19.9581 22.5764 20.5855C24.5377 21.2712 25.5663 20.3958 25.5526 17.7989Z" fill="url(#paint0_linear_175_249)"/>
<path d="M15.1291 34.9997C13.0855 34.9851 11.4671 33.2635 11.4671 31.1043C11.4534 28.9451 13.113 27.1944 15.1428 27.209C17.1452 27.2236 18.8734 29.0473 18.8459 31.1189C18.8185 33.2344 17.1041 35.0288 15.1291 34.9997Z" fill="url(#paint1_linear_175_249)"/>
<path d="M15.1428 9.12811e-05C17.1452 0.0146805 18.8596 1.82375 18.8322 3.89542C18.8048 5.96709 17.1452 7.76156 15.2114 7.77615C13.1404 7.80533 11.4397 6.04003 11.4397 3.85165C11.4397 1.72162 13.0992 -0.0144979 15.1428 9.12811e-05Z" fill="url(#paint2_linear_175_249)"/>
<defs>
<linearGradient id="paint0_linear_175_249" x1="3.80658" y1="29.5436" x2="27.8739" y2="6.91805" gradientUnits="userSpaceOnUse">
<stop stop-color="#88085B"/>
<stop offset="1" stop-color="#DD660A"/>
</linearGradient>
<linearGradient id="paint1_linear_175_249" x1="11.4628" y1="31.1074" x2="18.8413" y2="31.1074" gradientUnits="userSpaceOnUse">
<stop stop-color="#88085B"/>
<stop offset="1" stop-color="#DD660A"/>
</linearGradient>
<linearGradient id="paint2_linear_175_249" x1="11.4442" y1="3.89022" x2="18.8293" y2="3.89022" gradientUnits="userSpaceOnUse">
<stop stop-color="#88085B"/>
<stop offset="1" stop-color="#DD660A"/>
</linearGradient>
</defs>
</svg>
